<svg id="Layer_1" data-name="Layer 1" xmlns="http://www.w3.org/2000/svg" xmlns:xlink="http://www.w3.org/1999/xlink" viewBox="0 0 2533.9 1237.19"><defs><style>.cls-1,.cls-4,.cls-5{fill:#e6e6e6;}.cls-1,.cls-3,.cls-4,.cls-5{stroke-miterlimit:10;stroke-width:14px;}.cls-1{stroke:url(#linear-gradient);}.cls-2{fill:#1d3d99;}.cls-3{fill:none;stroke:url(#linear-gradient-2);}.cls-4{stroke:url(#linear-gradient-3);}.cls-5{stroke:url(#linear-gradient-4);}.cls-6{fill:#fb0030;}.cls-7{fill:#fcfcfc;}.cls-8{fill:#008fff;}.cls-9{fill:#fff;}.cls-10{fill:#fcfdfd;}.cls-11{fill:url(#linear-gradient-5);}.cls-12{fill:url(#linear-gradient-6);}.cls-13{fill:url(#linear-gradient-7);}</style><linearGradient id="linear-gradient" x1="219.94" y1="750.19" x2="219.94" y2="344.49" gradientUnits="userSpaceOnUse"><stop offset="0" stop-color="#1d3d99"/><stop offset="0.17" stop-color="#1c419e"/><stop offset="0.39" stop-color="#174dad"/><stop offset="0.62" stop-color="#1061c6"/><stop offset="0.86" stop-color="#067de8"/><stop offset="1" stop-color="#008fff"/></linearGradient><linearGradient id="linear-gradient-2" x1="1262.49" y1="906.96" x2="1262.49" y2="258.26" xlink:href="#linear-gradient"/><linearGradient id="linear-gradient-3" x1="2271.4" y1="378.96" x2="2271.4" y2="0" xlink:href="#linear-gradient"/><linearGradient id="linear-gradient-4" x1="2273.83" y1="1066.1" x2="2273.83" y2="687.13" xlink:href="#linear-gradient"/><linearGradient id="linear-gradient-5" x1="700.81" y1="887.13" x2="1069.75" y2="887.13" gradientUnits="userSpaceOnUse"><stop offset="0" stop-color="#1d3d99"/><stop offset="0.33" stop-color="#0a73dc"/><stop offset="0.53" stop-color="#008fff"/><stop offset="0.66" stop-color="#077ce7"/><stop offset="0.94" stop-color="#184bab"/><stop offset="1" stop-color="#1c409d"/></linearGradient><linearGradient id="linear-gradient-6" x1="1806.51" y1="591.1" x2="2192.47" y2="591.1" gradientTransform="translate(-92.38 825.95) rotate(-20.78)" xlink:href="#linear-gradient-5"/><linearGradient id="linear-gradient-7" x1="2235.35" y1="1118.29" x2="2621.32" y2="1118.29" gradientTransform="matrix(-0.96, -0.28, -0.28, 0.96, 4644.31, 665.63)" xlink:href="#linear-gradient-5"/></defs><circle class="cls-1" cx="219.94" cy="547.34" r="195.85"/><path class="cls-2" d="M2238,758.65h-9.27V703.52h13l17.83,43.38,18-43.38h13v55.13h-9.26V715.13l-18.07,43.52h-7.16L2238,715.2Z" transform="translate(-203.27 -284.36)"/><path class="cls-2" d="M2340.41,738.88c0,12.53-8.87,21.33-21.49,21.33s-21.49-8.8-21.49-21.33,8.8-21.34,21.49-21.34S2340.41,726.34,2340.41,738.88Zm-8.41,0c0-8-5.53-13.79-13.08-13.79s-13,5.77-13,13.79,5.37,13.78,13,13.78S2332,746.9,2332,738.88Z" transform="translate(-203.27 -284.36)"/><path class="cls-2" d="M2368.6,760.21a18,18,0,0,1-14.57-7.08v5.52h-8.25V701.19h8.49v23.28a17.68,17.68,0,0,1,14.33-6.93c11.52,0,19.85,9,19.85,21.34S2380,760.21,2368.6,760.21ZM2354,738.88c0,7.7,5.45,13.39,13,13.39s13.08-5.53,13.08-13.39-5.53-13.4-13.08-13.4S2354,731.17,2354,738.88Z" transform="translate(-203.27 -284.36)"/><path class="cls-2" d="M2393.9,707.5a5.26,5.26,0,0,1,10.51,0,5.26,5.26,0,0,1-10.51,0Zm9.5,11.6v39.55H2395V719.1Z" transform="translate(-203.27 -284.36)"/><path class="cls-2" d="M2420.14,701.19v57.46h-8.41V701.19Z" transform="translate(-203.27 -284.36)"/><path class="cls-2" d="M2446.76,717.54c12.31,0,21,8.72,21,21,0,.93-.08,2.1-.16,3l-33.32-.07c1,7,5.91,11.68,12.38,11.68,5.29,0,10.2-3.12,11.68-7.48l7.94,1.17c-2.26,7.79-10.43,13.39-19.47,13.39-12.38,0-21.26-9.11-21.26-21.8C2425.58,726.26,2434.46,717.54,2446.76,717.54ZM2459,735.22a12.21,12.21,0,0,0-12.46-10.59c-6.38,0-11.06,4.28-12.15,10.59Z" transform="translate(-203.27 -284.36)"/><path class="cls-2" d="M2504.14,758.65h-9.26V703.52h13l17.83,43.38,18-43.38h13v55.13h-9.26V715.13l-18.07,43.52h-7.16l-18.07-43.45Z" transform="translate(-203.27 -284.36)"/><path class="cls-2" d="M2606.53,738.88c0,12.53-8.88,21.33-21.49,21.33s-21.49-8.8-21.49-21.33,8.8-21.34,21.49-21.34S2606.53,726.34,2606.53,738.88Zm-8.41,0c0-8-5.53-13.79-13.08-13.79s-13,5.77-13,13.79,5.37,13.78,13,13.78S2598.12,746.9,2598.12,738.88Z" transform="translate(-203.27 -284.36)"/><path class="cls-2" d="M2620.23,719.1v5.06a15.57,15.57,0,0,1,12.85-6.62c9.65,0,16,7.16,16,17v24.13h-8.41V735.14c0-5.84-3.5-10-9.42-10a10.65,10.65,0,0,0-10.82,10.83v22.73h-8.49V719.1Z" transform="translate(-203.27 -284.36)"/><path class="cls-2" d="M2674.89,717.54c12.3,0,21,8.72,21,21,0,.93-.08,2.1-.15,3l-33.33-.07c1,7,5.92,11.68,12.38,11.68,5.3,0,10.2-3.12,11.68-7.48l7.94,1.17c-2.26,7.79-10.43,13.39-19.46,13.39-12.38,0-21.26-9.11-21.26-21.8C2653.71,726.26,2662.59,717.54,2674.89,717.54Zm12.22,17.68a12.2,12.2,0,0,0-12.45-10.59c-6.39,0-11.06,4.28-12.15,10.59Z" transform="translate(-203.27 -284.36)"/><path class="cls-2" d="M2699.41,768.08a16.59,16.59,0,0,0,5.22,1.09c5.45,0,7.08-5.45,9.11-10.36l-17.83-39.71h9.26l12.38,29.2,10.75-29.2h8.88l-15.5,40.49c-3.43,9.11-6.93,16.66-15.34,16.66a19.06,19.06,0,0,1-6.93-1.32Z" transform="translate(-203.27 -284.36)"/><path class="cls-2" d="M2350.07,837.6c-13.79,0-23.75-8.41-23.75-19.93h8.87c0,7.08,6.23,12.22,15.11,12.22,7.86,0,12.46-4,12.46-9.58,0-6.3-7-7.24-14.8-8.33-10.35-1.4-20.94-3.27-20.94-16,0-10.2,8.64-17.44,21.49-17.44s22.27,7.94,22.27,18.92h-8.65c0-6.54-5.68-11.21-13.54-11.21-7.48,0-12.31,3.73-12.31,8.8,0,6.3,6.39,7.31,14.33,8.41,10.28,1.4,21.41,3.27,21.41,15.65C2372,829.89,2363.54,837.6,2350.07,837.6Z" transform="translate(-203.27 -284.36)"/><path class="cls-2" d="M2397.87,794.54c12.3,0,21,8.72,21,21,0,.93-.07,2.1-.15,3l-33.33-.07c1,7,5.92,11.68,12.38,11.68,5.3,0,10.2-3.12,11.68-7.48l8,1.17c-2.26,7.79-10.44,13.39-19.47,13.39-12.38,0-21.26-9.11-21.26-21.8C2376.69,803.26,2385.57,794.54,2397.87,794.54Zm12.23,17.68a12.21,12.21,0,0,0-12.46-10.59c-6.39,0-11.06,4.28-12.15,10.59Z" transform="translate(-203.27 -284.36)"/><path class="cls-2" d="M2432.52,796.1v5.06a12.35,12.35,0,0,1,10.74-6.46,15.42,15.42,0,0,1,5.06,1v7.55a16.63,16.63,0,0,0-6.15-1.24c-5.61,0-9.34,5-9.34,12v21.64h-8.49V796.1Z" transform="translate(-203.27 -284.36)"/><path class="cls-2" d="M2463.19,835.65l-14.48-39.55h9l11.37,33,11.45-33h9.11l-14.56,39.55Z" transform="translate(-203.27 -284.36)"/><path class="cls-2" d="M2493.48,784.5a5.26,5.26,0,0,1,10.51,0,5.26,5.26,0,0,1-10.51,0Zm9.5,11.6v39.55h-8.41V796.1Z" transform="translate(-203.27 -284.36)"/><path class="cls-2" d="M2550,809.57l-8.09,1a11.81,11.81,0,0,0-11.53-8.8c-7,0-12.53,5.92-12.53,14.1S2523.3,830,2530.38,830a11.91,11.91,0,0,0,11.6-8.72l8.1,1c-1.63,8.64-10,15-19.7,15-12.14,0-20.94-9-20.94-21.33s8.8-21.34,20.86-21.34C2540.35,794.54,2548.6,800.85,2550,809.57Z" transform="translate(-203.27 -284.36)"/><path class="cls-2" d="M2574.84,794.54c12.3,0,21,8.72,21,21,0,.93-.07,2.1-.15,3l-33.33-.07c1,7,5.92,11.68,12.38,11.68,5.3,0,10.2-3.12,11.68-7.48l7.94,1.17c-2.25,7.79-10.43,13.39-19.46,13.39-12.38,0-21.26-9.11-21.26-21.8C2553.66,803.26,2562.54,794.54,2574.84,794.54Zm12.23,17.68a12.21,12.21,0,0,0-12.46-10.59c-6.39,0-11.06,4.28-12.15,10.59Z" transform="translate(-203.27 -284.36)"/><path class="cls-2" d="M2618.05,837.29c-10.43,0-18-6.31-18-15h7.79c0,4.67,4.28,8.1,10.2,8.1,5.3,0,9.11-2.42,9-5.69,0-4.12-6.15-5.13-10.12-5.68-9.27-1.4-16.27-2.57-16.27-12,0-7.24,6.93-12.54,15.88-12.54,10.2,0,17.68,5.69,17.68,13.55h-7.87c-.08-3.89-4.2-6.62-9.89-6.62-4.28,0-7.86,2.34-7.86,5.53,0,3,3,3.9,9.34,5,7.56,1.25,17.29,2.89,17.29,11.84C2635.26,831.61,2628.1,837.29,2618.05,837.29Z" transform="translate(-203.27 -284.36)"/><path class="cls-2" d="M1327.28,963.87v13.42h-14.67V927h24.08c12.5,0,21.07,7.44,21.07,18.4s-8.64,18.46-21.28,18.46Zm0-26V953h6.39c5.27,0,8.85-3.09,8.85-7.58s-3.65-7.52-8.85-7.52Z" transform="translate(-203.27 -284.36)"/><path class="cls-2" d="M1384.31,941.05h13.48v36.24h-13.48v-4.64a13.21,13.21,0,0,1-11.17,6c-9.83,0-16.5-7.93-16.5-19.52s6.67-19.52,16.5-19.52a13.21,13.21,0,0,1,11.17,6Zm-.07,18.12c0-4.49-3-7.72-7-7.72s-7,3.23-7,7.72,2.88,7.72,7,7.72S1384.24,963.59,1384.24,959.17Z" transform="translate(-203.27 -284.36)"/><path class="cls-2" d="M1405.51,983a13.25,13.25,0,0,0,3.87.57c4,0,6.11-1.48,7.51-5.69L1399,941.05h14.68l8.36,19.88,6.32-19.88h13.9L1428.48,979c-3.73,10.25-8.22,14.89-15.17,14.89a25,25,0,0,1-7.8-1.34Z" transform="translate(-203.27 -284.36)"/><path class="cls-2" d="M1443.36,977.29V941.05h13v4.5a12,12,0,0,1,10.74-5.9c4.91,0,8.92,2.32,11,6.11,2.18-3.79,7.17-6.11,11.94-6.11,8.08,0,13.48,5.69,13.48,14v23.67h-13.55V957.2c0-3.16-1.83-5.61-5-5.75s-5,2.38-5,5.75v20.09H1466.4V957.2c0-3.44-1.9-5.75-4.71-5.75s-4.77,2.31-4.77,5.75v20.09Z" transform="translate(-203.27 -284.36)"/><path class="cls-2" d="M1526.3,939.65c12,0,19.87,7.86,19.87,19.52,0,1.05-.07,3-.14,3.65H1519.7c.91,3.79,3.37,6.11,7,6.11a6.29,6.29,0,0,0,6.18-4l11.94,1.54c-1.62,7.1-9.41,12.22-18.82,12.22-11.94,0-20.23-7.93-20.23-19.66C1505.79,947.51,1514.29,939.65,1526.3,939.65Zm6.25,16.08a6.63,6.63,0,0,0-6.53-6.39c-3.44,0-5.69,2.53-6.39,6.39Z" transform="translate(-203.27 -284.36)"/><path class="cls-2" d="M1562.25,941.05v5.2c2.6-4,6.53-6.6,11.31-6.6,7.44,0,12.71,6,12.71,14.39v23.25h-13.56V957.13c0-3.37-1.82-5.68-4.77-5.68s-5.2,2.38-5.2,5.89v19.95h-13.55V941.05Z" transform="translate(-203.27 -284.36)"/><path class="cls-2" d="M1592.52,951.09h-4.64v-10h5.2l1.33-9.48H1606v9.48h7.58v10H1606V962.4c0,2.74,1.69,4.56,4.28,4.56a15.3,15.3,0,0,0,3.44-.42v10.89a29.4,29.4,0,0,1-8.14,1.26c-7.87,0-13.06-6.18-13.06-14.67Z" transform="translate(-203.27 -284.36)"/><path class="cls-2" d="M1345.86,1030.56H1333v-8.71h27.38c1.83,17.84-9.48,30.76-26.82,30.76-16.36,0-28.23-11.3-28.23-26.89s11.87-26.9,28.23-26.9c12.57,0,22.54,7.37,24.72,17.77l-14,2.39c-1.19-4.22-5.69-7.24-10.74-7.24-7.51,0-12.92,5.83-12.92,14s5.62,14,13.55,14C1340.38,1039.69,1345.51,1035.76,1345.86,1030.56Z" transform="translate(-203.27 -284.36)"/><path class="cls-2" d="M1390,1014.62h13.48v36.24H1390v-4.64a13.21,13.21,0,0,1-11.17,6c-9.83,0-16.5-7.94-16.5-19.52s6.67-19.52,16.5-19.52a13.18,13.18,0,0,1,11.17,6Zm-.07,18.12c0-4.5-3-7.73-7-7.73s-7,3.23-7,7.73,2.88,7.72,7,7.72S1389.89,1037.16,1389.89,1032.74Z" transform="translate(-203.27 -284.36)"/><path class="cls-2" d="M1410.46,1024.66h-4.63v-10h5.2l1.33-9.48H1424v9.48h7.58v10H1424V1036c0,2.74,1.68,4.56,4.28,4.56a15.37,15.37,0,0,0,3.44-.42V1051a29.51,29.51,0,0,1-8.14,1.26c-7.87,0-13.07-6.18-13.07-14.68Z" transform="translate(-203.27 -284.36)"/><path class="cls-2" d="M1453.72,1013.22c12,0,19.87,7.86,19.87,19.52,0,1-.07,3-.14,3.65h-26.33c.91,3.79,3.37,6.11,7,6.11a6.29,6.29,0,0,0,6.18-4l11.94,1.54c-1.62,7.09-9.41,12.22-18.82,12.22-11.94,0-20.22-7.94-20.22-19.66C1433.22,1021.08,1441.71,1013.22,1453.72,1013.22Zm6.25,16.08a6.63,6.63,0,0,0-6.53-6.39c-3.44,0-5.69,2.53-6.39,6.39Z" transform="translate(-203.27 -284.36)"/><path class="cls-2" d="M1482.79,1050.86l-10.25-36.24h14l5.75,22.61,6.25-22.61h11.66l6.81,23,5.76-23h13.48l-10.32,36.24h-16.64l-4.92-20.44-4.84,20.44Z" transform="translate(-203.27 -284.36)"/><path class="cls-2" d="M1562.78,1014.62h13.48v36.24h-13.48v-4.64a13.21,13.21,0,0,1-11.17,6c-9.83,0-16.5-7.94-16.5-19.52s6.67-19.52,16.5-19.52a13.18,13.18,0,0,1,11.17,6Zm-.07,18.12c0-4.5-3-7.73-7-7.73s-7,3.23-7,7.73,2.88,7.72,7,7.72S1562.71,1037.16,1562.71,1032.74Z" transform="translate(-203.27 -284.36)"/><path class="cls-2" d="M1584,1056.61a13.52,13.52,0,0,0,3.86.57c4,0,6.11-1.48,7.51-5.69l-17.9-36.87h14.67l8.36,19.87,6.32-19.87h13.9L1607,1052.54c-3.72,10.25-8.22,14.89-15.17,14.89a24.89,24.89,0,0,1-7.79-1.34Z" transform="translate(-203.27 -284.36)"/><path class="cls-2" d="M2236.41,1451.79h-9.27v-55.13h13L2258,1440l18-43.37h13v55.13h-9.27v-43.53l-18.06,43.53h-7.17l-18.06-43.45Z" transform="translate(-203.27 -284.36)"/><path class="cls-2" d="M2338.8,1432c0,12.54-8.88,21.33-21.5,21.33s-21.49-8.79-21.49-21.33,8.8-21.34,21.49-21.34S2338.8,1419.47,2338.8,1432Zm-8.41,0c0-8-5.53-13.78-13.09-13.78s-13,5.76-13,13.78,5.37,13.78,13,13.78S2330.39,1440,2330.39,1432Z" transform="translate(-203.27 -284.36)"/><path class="cls-2" d="M2367,1453.34a17.92,17.92,0,0,1-14.56-7.08v5.53h-8.25v-57.47h8.48v23.28a17.68,17.68,0,0,1,14.33-6.93c11.52,0,19.85,9,19.85,21.34S2378.43,1453.34,2367,1453.34ZM2352.34,1432c0,7.71,5.45,13.39,13,13.39s13.09-5.53,13.09-13.39-5.53-13.39-13.09-13.39S2352.34,1424.3,2352.34,1432Z" transform="translate(-203.27 -284.36)"/><path class="cls-2" d="M2392.28,1400.63a5.26,5.26,0,0,1,10.51,0,5.26,5.26,0,0,1-10.51,0Zm9.5,11.6v39.56h-8.41v-39.56Z" transform="translate(-203.27 -284.36)"/><path class="cls-2" d="M2418.52,1394.32v57.47h-8.41v-57.47Z" transform="translate(-203.27 -284.36)"/><path class="cls-2" d="M2445.15,1410.67c12.3,0,21,8.72,21,20.95,0,.93-.08,2.1-.15,3l-33.33-.08c1,7,5.92,11.68,12.38,11.68,5.3,0,10.2-3.12,11.68-7.48l7.94,1.17c-2.26,7.79-10.43,13.39-19.46,13.39-12.38,0-21.26-9.11-21.26-21.8C2424,1419.39,2432.85,1410.67,2445.15,1410.67Zm12.22,17.68a12.2,12.2,0,0,0-12.45-10.59c-6.39,0-11.06,4.28-12.15,10.59Z" transform="translate(-203.27 -284.36)"/><path class="cls-2" d="M2502.53,1451.79h-9.27v-55.13h13L2524.1,1440l18-43.37h13v55.13h-9.27v-43.53l-18.06,43.53h-7.17l-18.06-43.45Z" transform="translate(-203.27 -284.36)"/><path class="cls-2" d="M2604.92,1432c0,12.54-8.88,21.33-21.5,21.33s-21.49-8.79-21.49-21.33,8.8-21.34,21.49-21.34S2604.92,1419.47,2604.92,1432Zm-8.42,0c0-8-5.52-13.78-13.08-13.78s-13,5.76-13,13.78,5.37,13.78,13,13.78S2596.5,1440,2596.5,1432Z" transform="translate(-203.27 -284.36)"/><path class="cls-2" d="M2618.61,1412.23v5.06a15.61,15.61,0,0,1,12.85-6.62c9.66,0,16,7.17,16,17v24.14H2639v-23.52c0-5.84-3.51-10-9.43-10a10.65,10.65,0,0,0-10.82,10.82v22.74h-8.49v-39.56Z" transform="translate(-203.27 -284.36)"/><path class="cls-2" d="M2673.27,1410.67c12.31,0,21,8.72,21,20.95,0,.93-.08,2.1-.16,3l-33.33-.08c1,7,5.92,11.68,12.38,11.68,5.3,0,10.2-3.12,11.68-7.48l8,1.17c-2.26,7.79-10.44,13.39-19.47,13.39-12.38,0-21.26-9.11-21.26-21.8C2652.09,1419.39,2661,1410.67,2673.27,1410.67Zm12.23,17.68a12.21,12.21,0,0,0-12.46-10.59c-6.39,0-11.06,4.28-12.15,10.59Z" transform="translate(-203.27 -284.36)"/><path class="cls-2" d="M2697.8,1461.21a16.53,16.53,0,0,0,5.21,1.09c5.45,0,7.09-5.45,9.11-10.36l-17.83-39.71h9.27l12.38,29.2,10.74-29.2h8.88l-15.49,40.49c-3.43,9.11-6.94,16.66-15.34,16.66a18.81,18.81,0,0,1-6.93-1.32Z" transform="translate(-203.27 -284.36)"/><path class="cls-2" d="M2402.06,1513.22l13-48.44h9.58l-15.19,55.13h-14.4l-10.75-44.61-10.66,44.61h-14.49l-15.26-55.13h9.66l13.08,48.44,11.68-48.44h12.3Z" transform="translate(-203.27 -284.36)"/><path class="cls-2" d="M2458.74,1480.36h8.48v39.55h-8.48V1514a17.74,17.74,0,0,1-14.72,7.47c-11.6,0-19.86-9-19.86-21.33s8.26-21.34,19.86-21.34a17.72,17.72,0,0,1,14.72,7.48Zm-.08,19.78c0-8-5.45-13.79-13-13.79s-13.08,5.77-13.08,13.79,5.53,13.78,13.08,13.78S2458.66,1508.16,2458.66,1500.14Z" transform="translate(-203.27 -284.36)"/><path class="cls-2" d="M2483,1462.45v57.46h-8.41v-57.46Z" transform="translate(-203.27 -284.36)"/><path class="cls-2" d="M2498.67,1462.45v57.46h-8.41v-57.46Z" transform="translate(-203.27 -284.36)"/><path class="cls-2" d="M2525.3,1478.8c12.31,0,21,8.72,21,21,0,.93-.08,2.1-.16,3l-33.33-.07c1,7,5.92,11.68,12.38,11.68,5.3,0,10.2-3.12,11.68-7.48l7.95,1.17c-2.26,7.78-10.44,13.39-19.47,13.39-12.38,0-21.26-9.11-21.26-21.8C2504.12,1487.52,2513,1478.8,2525.3,1478.8Zm12.23,17.68a12.21,12.21,0,0,0-12.46-10.59c-6.39,0-11.06,4.28-12.15,10.59Z" transform="translate(-203.27 -284.36)"/><path class="cls-2" d="M2555.2,1487h-6.08v-6.62h6.55l1.08-9.58h6.93v9.58h9.66V1487h-9.66v21.25c0,3.59,2.19,6.08,5.77,6.08a17.08,17.08,0,0,0,4.44-.7v6.77a23.61,23.61,0,0,1-7,1.09c-7.09,0-11.68-5.14-11.68-12.69Z" transform="translate(-203.27 -284.36)"/><path class="cls-2" d="M2596.07,1521.55c-10.43,0-18-6.31-18-15h7.78c0,4.67,4.29,8.1,10.2,8.1,5.3,0,9.11-2.42,9-5.69,0-4.12-6.15-5.13-10.13-5.68-9.26-1.4-16.27-2.57-16.27-12,0-7.24,6.93-12.54,15.88-12.54,10.2,0,17.68,5.69,17.68,13.55h-7.86c-.08-3.89-4.21-6.62-9.89-6.62-4.29,0-7.87,2.34-7.87,5.53,0,3,3,3.89,9.35,5,7.55,1.25,17.28,2.89,17.28,11.84C2613.28,1515.86,2606.12,1521.55,2596.07,1521.55Z" transform="translate(-203.27 -284.36)"/><path class="cls-2" d="M205.3,1096.75c0-17.17,12.23-29.32,29.79-29.32S265,1079.58,265,1096.75s-12.23,29.33-29.87,29.33S205.3,1114,205.3,1096.75Zm9.29,0c0,12.39,8.51,21.21,20.5,21.28s20.58-8.89,20.58-21.28-8.51-21.2-20.58-21.2S214.59,1084.37,214.59,1096.75Z" transform="translate(-203.27 -284.36)"/><path class="cls-2" d="M298.92,1124.15v-5a15.32,15.32,0,0,1-12.68,6.57c-9.68,0-15.94-7.12-15.94-16.86v-24h8.43v23.37c0,5.8,3.4,10,9.36,10a10.64,10.64,0,0,0,10.76-10.76v-22.59h8.35v39.31Z" transform="translate(-203.27 -284.36)"/><path class="cls-2" d="M322.6,1084.84v5a12.27,12.27,0,0,1,10.68-6.42,15.23,15.23,0,0,1,5,1V1092a16.48,16.48,0,0,0-6.11-1.24c-5.58,0-9.29,5-9.29,11.92v21.51h-8.43v-39.31Z" transform="translate(-203.27 -284.36)"/><path class="cls-2" d="M368.48,1069.36l16.17,48,16.1-48h9.75l-18.88,54.79h-14l-18.88-54.79Z" transform="translate(-203.27 -284.36)"/><path class="cls-2" d="M442.92,1084.84h8.43v39.31h-8.43v-5.88a17.63,17.63,0,0,1-14.63,7.42c-11.53,0-19.73-8.89-19.73-21.2s8.2-21.2,19.73-21.2a17.64,17.64,0,0,1,14.63,7.43Zm-.08,19.65c0-8-5.42-13.69-12.92-13.69s-13,5.72-13,13.69,5.49,13.7,13,13.7S442.84,1112.46,442.84,1104.49Z" transform="translate(-203.27 -284.36)"/><path class="cls-2" d="M467,1067v57.11h-8.36V1067Z" transform="translate(-203.27 -284.36)"/><path class="cls-2" d="M502.11,1124.15v-5a15.34,15.34,0,0,1-12.69,6.57c-9.68,0-15.94-7.12-15.94-16.86v-24h8.43v23.37c0,5.8,3.4,10,9.36,10A10.64,10.64,0,0,0,502,1107.43v-22.59h8.35v39.31Z" transform="translate(-203.27 -284.36)"/><path class="cls-2" d="M536.85,1083.29c12.22,0,20.89,8.67,20.89,20.82,0,.92-.08,2.08-.16,3l-33.11-.07c1,7,5.88,11.6,12.3,11.6,5.26,0,10.13-3.09,11.61-7.43l7.89,1.16c-2.25,7.74-10.37,13.31-19.35,13.31-12.3,0-21.12-9-21.12-21.66C515.8,1092,524.62,1083.29,536.85,1083.29ZM549,1100.86a12.13,12.13,0,0,0-12.38-10.53c-6.34,0-11,4.26-12.07,10.53Z" transform="translate(-203.27 -284.36)"/><path class="cls-2" d="M581,1083.29a17.55,17.55,0,0,1,14.24,6.89V1067h8.44v57.11h-8.21v-5.5a17.81,17.81,0,0,1-14.47,7c-11.37,0-19.73-8.89-19.73-21.2S569.57,1083.29,581,1083.29Zm-11.37,21.2c0,7.82,5.57,13.31,13,13.31s12.92-5.65,12.92-13.31-5.41-13.31-12.92-13.31S569.65,1096.83,569.65,1104.49Z" transform="translate(-203.27 -284.36)"/><path class="cls-2" d="M329.22,1172.81l8.82,1.47c-2.48,11.3-13.54,19.5-26.31,19.5-16.63,0-28.71-12.3-28.63-29.32s12-29.33,28.63-29.33c12.77,0,23.83,8.59,26.31,20.35l-8.9,1.08a17.79,17.79,0,0,0-17.33-13.3c-11.38,0-19.42,8.82-19.42,21.2s8.12,21.27,19.42,21.27A18.15,18.15,0,0,0,329.22,1172.81Z" transform="translate(-203.27 -284.36)"/><path class="cls-2" d="M352.5,1134.74v57.11h-8.35v-57.11Z" transform="translate(-203.27 -284.36)"/><path class="cls-2" d="M359.78,1141a5.22,5.22,0,0,1,10.44,0,5.22,5.22,0,0,1-10.44,0Zm9.44,11.53v39.31h-8.36v-39.31Z" transform="translate(-203.27 -284.36)"/><path class="cls-2" d="M396.69,1151c12.22,0,20.89,8.67,20.89,20.82,0,.93-.08,2.09-.16,3l-33.11-.07c1,7,5.88,11.6,12.3,11.6,5.26,0,10.13-3.09,11.6-7.42l7.9,1.16c-2.25,7.73-10.37,13.31-19.35,13.31-12.3,0-21.12-9.06-21.12-21.67C375.64,1159.66,384.46,1151,396.69,1151Zm12.14,17.57A12.13,12.13,0,0,0,396.45,1158c-6.34,0-11,4.26-12.07,10.53Z" transform="translate(-203.27 -284.36)"/><path class="cls-2" d="M431.27,1152.54v5A15.49,15.49,0,0,1,444,1151c9.59,0,15.86,7.12,15.86,16.87v24h-8.36v-23.37c0-5.8-3.48-10-9.36-10a10.59,10.59,0,0,0-10.76,10.75v22.6H423v-39.31Z" transform="translate(-203.27 -284.36)"/><path class="cls-2" d="M469.8,1159.12h-6v-6.58h6.5l1.08-9.52h6.89v9.52h9.59v6.58h-9.59v21.12c0,3.56,2.16,6,5.72,6a16.88,16.88,0,0,0,4.41-.7v6.73a23.28,23.28,0,0,1-7,1.09c-7,0-11.61-5.11-11.61-12.62Z" transform="translate(-203.27 -284.36)"/><path class="cls-2" d="M510.42,1193.47c-10.37,0-17.87-6.26-17.87-14.93h7.74c0,4.64,4.25,8,10.13,8,5.26,0,9.06-2.4,9-5.65,0-4.1-6.11-5.11-10.06-5.65-9.21-1.39-16.17-2.55-16.17-11.92,0-7.19,6.88-12.45,15.78-12.45,10.14,0,17.57,5.64,17.57,13.46H518.7c-.07-3.87-4.18-6.58-9.82-6.58-4.26,0-7.82,2.32-7.82,5.5,0,2.94,2.94,3.86,9.29,5,7.5,1.24,17.17,2.86,17.17,11.76C527.52,1187.82,520.41,1193.47,510.42,1193.47Z" transform="translate(-203.27 -284.36)"/><circle class="cls-3" cx="1262.49" cy="582.61" r="317.35"/><circle class="cls-4" cx="2271.4" cy="189.48" r="182.48"/><circle class="cls-5" cx="2273.83" cy="876.62" r="182.48"/><path class="cls-2" d="M1701.76,830.75c-9.66,9.87-21.4,16.7-33.72,22.62-24.21,11.63-49.7,19.33-76,24.62-19,3.83-38.2,6.55-57.47,8.58-11.72,1.24-23.46,2.1-35.23,2.82-12.58.77-25.15.83-37.74.79a54.63,54.63,0,0,1-8-.67c-.92-.13-2.42,0-2.46-1.25s1.42-1.18,2.35-1.39a69.23,69.23,0,0,1,10.34-1.1c8-.57,16-.94,24-1.39,15.37-.87,30.71-2.14,46-4.22,13.49-1.83,26.88-4.14,40-7.95a203.23,203.23,0,0,0,32.12-12h0a132.64,132.64,0,0,0,14.5-8.13h0l1.65-1.08c1.65-1.11,3.25-2.27,4.77-3.51,31.95-24.5,63.63-75.41-144.87-90.39C1218.46,738.18,1210.51,817,1210.51,817v0l-.1-.16c-6-9.93-6.11-20-.52-30.08,4.35-7.86,10.88-13.66,18.19-18.61,16.19-10.95,33.9-18.76,52.34-25,23.23-7.87,47.11-13,71.35-16.5q25.45-3.71,51.11-5.24c10.11-.6,20.22-1,30.34-1.32,12.22-.44,24.45-.41,36.67-.19q23.2.42,46.37,1.91c14.57,1,29.13,2.14,43.64,3.67,28.74,3,57.27,7.24,84.91,16,16.07,5.1,31.55,11.51,45.17,21.73,8.93,6.71,16.53,14.63,20.46,25.31C1716.26,804.31,1713.69,818.57,1701.76,830.75Z" transform="translate(-203.27 -284.36)"/><path class="cls-6" d="M1270.29,786.53h22.92l16.57,52.94h-16l-2.51-8.06h-19l-2.51,8.06h-16Zm17.9,33.79-6.07-20.56h-.74l-6.06,20.56Z" transform="translate(-203.27 -284.36)"/><path class="cls-6" d="M1312.22,832.45l16.56-19.23v-.81H1313V801.32h34.6v7.1l-15.45,19.22v.74h16.19v11.09h-36.08Z" transform="translate(-203.27 -284.36)"/><path class="cls-6" d="M1351.41,829.42c0-7.4,6-11.32,18.48-13l6.66-.81v-1.7c0-2.81-1.85-4.73-5-4.73a4.85,4.85,0,0,0-5.18,5.17H1353c0-8.5,7.32-14,18.71-14s18.78,5.47,18.78,14v25.06h-13.9V835h-.74c-2.15,3.55-6.73,5.4-11.69,5.4C1356.58,840.36,1351.41,836.37,1351.41,829.42Zm25.14-4.22v-2.29l-6.14.89c-4.07.52-5.69,2.07-5.69,4.29s1.77,3.92,4.8,3.92A6.67,6.67,0,0,0,1376.55,825.2Z" transform="translate(-203.27 -284.36)"/><path class="cls-6" d="M1396.51,801.32h13.76v6.14h.81a12.25,12.25,0,0,1,22.33.22h.74c2-4.51,6.14-7.25,11.61-7.25,8,0,13.75,6,13.75,14.79v24.25h-13.9V818.33c0-3.48-2.07-6.22-5.47-6.36s-5.47,2.58-5.47,6.36v21.14h-13.9V818.33c0-3.85-2.07-6.36-5.18-6.36s-5.25,2.51-5.25,6.36v21.14h-13.83Z" transform="translate(-203.27 -284.36)"/><path class="cls-2" d="M1466.61,786.53h24.55c13.9,0,22.56,7.39,22.56,18.78S1505,824.09,1491,824.09h-8.87v15.38h-15.53Zm22.78,26.32c5.25,0,8.72-3,8.72-7.54s-3.47-7.54-8.72-7.54h-7.25v15.08Z" transform="translate(-203.27 -284.36)"/><path class="cls-2" d="M1515.49,829.42c0-7.4,6-11.32,18.49-13l6.65-.81v-1.7c0-2.81-1.85-4.73-5-4.73a4.84,4.84,0,0,0-5.17,5.17H1517c0-8.5,7.32-14,18.71-14s18.78,5.47,18.78,14v25.06h-13.9V835h-.74c-2.14,3.55-6.73,5.4-11.68,5.4C1520.67,840.36,1515.49,836.37,1515.49,829.42Zm25.14-4.22v-2.29l-6.14.89c-4.06.52-5.69,2.07-5.69,4.29s1.77,3.92,4.81,3.92A6.66,6.66,0,0,0,1540.63,825.2Z" transform="translate(-203.27 -284.36)"/><path class="cls-2" d="M1560.74,855.45V844.72a18,18,0,0,0,6.07,1.11c4.21,0,6.43-2.81,7.47-5.76l-18.71-38.75h15l8.58,21.07h.74l6.65-21.07h14.2l-14.49,39.93c-3.92,10.65-8.58,15.6-16.64,15.6A27.84,27.84,0,0,1,1560.74,855.45Z" transform="translate(-203.27 -284.36)"/><path class="cls-2" d="M2386.17,528.9V424.34q0-17.8,0-35.6c0-6.78,1-7.71,7.79-7.71H2558.7c9.54,0,9.8.35,9.79,9.81q-.06,72.41,0,144.79c0,16.18.17,32.37.21,48.54,0,15.56-.13,31.13-.2,46.69-.06,12.64.21,25.28.27,37.91,0,8.06-1.07,9.15-8.93,9.15H2394.19c-7,0-8.31-1.3-8.32-8.37q0-70.32,0-140.64Zm101.41-110.65c-.91,3.94-3.65,4.75-7.31,4.75-26.69-.07-53.38,0-80.08-.06-3.19,0-4.49.41-4.48,4.15q.2,100.68,0,201.35c0,3.64,1.14,4.25,4.43,4.25q77.08-.11,154.15.12c4,0,4.75-1.28,4.7-5-.24-15.42-.2-30.85-.19-46.28q0-77.54.16-155.06c0-2.79-.63-3.7-3.56-3.63-8.95.2-17.9,0-26.85.11-3.6.06-5.95-1.17-6.86-4.75.75-3.75,3.23-4.75,6.78-4.7,8.64.14,17.28-.14,25.9.14,3.79.12,4.78-1.19,4.57-4.74a92.2,92.2,0,0,1,0-13.4c.35-4.15-1.07-5.11-5.12-5.1-41.32.16-82.64.09-124,.1-10,0-20,.13-30.06-.07-3.3-.07-4.29,1-4.12,4.2a105.08,105.08,0,0,1,0,13.86c-.32,4.1,1,5.18,5.12,5.15,26.52-.18,53-.06,79.55-.13C2484,413.54,2486.84,414.12,2487.58,418.25ZM2477.32,644.4c-25.45,0-50.92.11-76.37-.11-4.25,0-5.29,1.24-5,5.2a123.58,123.58,0,0,1,0,13.88c-.11,2.72.63,3.77,3.58,3.76q77.76-.12,155.53,0c2.94,0,3.69-1,3.58-3.76a126,126,0,0,1,0-13.88c.29-4-.73-5.23-5-5.2C2528.24,644.53,2502.78,644.41,2477.32,644.4Z" transform="translate(-203.27 -284.36)"/><path class="cls-7" d="M2521.7,418.24c.91,3.58,3.26,4.81,6.86,4.75,9-.14,17.9.09,26.85-.11,2.93-.07,3.57.84,3.56,3.63q-.18,77.53-.16,155.06c0,15.43,0,30.86.19,46.28.05,3.68-.68,5-4.7,5q-77.07-.25-154.15-.12c-3.29,0-4.44-.61-4.43-4.25q.18-100.66,0-201.35c0-3.74,1.29-4.16,4.48-4.15,26.7.1,53.39,0,80.08.06,3.66,0,6.4-.81,7.31-4.75Z" transform="translate(-203.27 -284.36)"/><path class="cls-8" d="M2521.7,418.24h-34.12c-.74-4.13-3.63-4.71-7.23-4.7-26.51.07-53-.05-79.55.13-4.09,0-5.44-1.05-5.12-5.15a105.08,105.08,0,0,0,0-13.86c-.17-3.2.82-4.27,4.12-4.2,10,.2,20,.07,30.06.07,41.32,0,82.64.06,124-.1,4.05,0,5.47.95,5.12,5.1a92.2,92.2,0,0,0,0,13.4c.21,3.55-.78,4.86-4.57,4.74-8.62-.28-17.26,0-25.9-.14C2524.93,413.49,2522.45,414.49,2521.7,418.24Z" transform="translate(-203.27 -284.36)"/><path class="cls-8" d="M2477.32,644.4c25.46,0,50.92.13,76.38-.11,4.27,0,5.29,1.25,5,5.2a126,126,0,0,0,0,13.88c.11,2.73-.64,3.77-3.58,3.76q-77.78-.12-155.53,0c-2.95,0-3.69-1-3.58-3.76a123.58,123.58,0,0,0,0-13.88c-.29-4,.75-5.24,5-5.2C2426.4,644.51,2451.87,644.4,2477.32,644.4Zm0,1.7a9.47,9.47,0,0,0-9.46,9.28,9.51,9.51,0,1,0,19-.1A9.46,9.46,0,0,0,2477.28,646.1Z" transform="translate(-203.27 -284.36)"/><path class="cls-7" d="M2477.28,646.1a9.46,9.46,0,0,1,9.55,9.18,9.51,9.51,0,1,1-19,.1A9.47,9.47,0,0,1,2477.28,646.1Z" transform="translate(-203.27 -284.36)"/><rect class="cls-9" x="2150.6" y="828.71" width="172.5" height="91.07"/><path class="cls-8" d="M2520.25,1038.11c.6,1.12,1.81.72,2.7,1,14.65,4.21,23.78,18.88,20.74,33.43a29,29,0,0,1-32.48,23c-14.54-1.85-25.44-15.19-24.73-30.24a29,29,0,0,1,20-25.87c1-.33,2.28-.2,2.92-1.34Zm12.31,29a17.25,17.25,0,0,0-17.27-17.46,17.28,17.28,0,1,0,.07,34.56A17.06,17.06,0,0,0,2532.56,1067.1Z" transform="translate(-203.27 -284.36)"/><path class="cls-2" d="M2442.47,1038.11c1.16,1.28,2.81,2.14,3.34,4a5.85,5.85,0,0,1-2.87,6.86,5.52,5.52,0,0,1-7.18-1.61c-1.83-2.5-1.66-5,.29-7.37.53-.66,1.64-.79,1.69-1.87Z" transform="translate(-203.27 -284.36)"/><path class="cls-2" d="M2586.54,1038.11c2.1,1.55,4.13,3.22,3.83,6.18a5.52,5.52,0,0,1-4.53,5.2,5.34,5.34,0,0,1-6.24-2.86,5.53,5.53,0,0,1,.92-6.81c.59-.63,1.31-1.14,2-1.71Z" transform="translate(-203.27 -284.36)"/><path class="cls-2" d="M2313.62,1241.64c.94-10.87,5.53-16.85,14.4-18.53a30.27,30.27,0,0,1,5.72-.32q20.28,0,40.57,0c12.87,0,19.72,6.56,19.85,19.4,0,3.06,1.1,3.31,3.58,2.7,6.49-1.58,12.47-4.5,18.62-7,21.86-8.8,44.23-10.83,67.15-4.91a54.63,54.63,0,0,1,13.69,5.65c8.41,4.89,17.23,4,25.83,1.5,7.88-2.3,15.61-5.09,23.78-6.26a5.15,5.15,0,0,0,3.75-2.39,101.37,101.37,0,0,1,28.93-27.08c4.54-2.84,9.35-5,14.78-5.26a16.22,16.22,0,0,1,14.09,5.93c1.68,2,3.1,2.23,5.4,1.46a21.39,21.39,0,0,1,14.57.09,16,16,0,0,1,10.52,17.65c-.41,2.7-.23,4.6,2,6.77,4.74,4.66,5.52,10.63,3.7,16.92a22.69,22.69,0,0,1-3.71,7.54c-16.77,22.06-32.77,44.69-49.69,66.65-5.77,7.49-13,11.52-21.81,14.17q-43.64,13.13-88.08,23.1c-17.43,3.93-32.88-.37-48.34-7.24-9.16-4.06-18.24-8.27-27.09-13-3.39-1.8-7.07-.74-10.61-.74-1.43,0-1,1.57-1,2.47-.05,6.2,0,12.4,0,18.6,0,12-7.1,19.11-19.12,19.15q-16.91,0-33.8,0c-9.52,0-16.44-5.46-18.12-14.86-3.38-18.85-5.67-37.85-7.24-56.93-1-11.8-1.5-23.61-2-35.43l0-2.77q-.12-11.77-.22-23.55A6.17,6.17,0,0,0,2313.62,1241.64Zm80.58,50.16c0,10-.07,20.06,0,30.09.05,5.43-.91,5.07,4.8,4.83a26.74,26.74,0,0,1,14.76,3.5c11.31,6.3,23.27,11.25,35.32,16a47.08,47.08,0,0,0,27.12,2.21c30.74-6,60.81-14.45,90.75-23.5,6.08-1.84,11.05-4.63,15.09-9.9,16.66-21.73,32.52-44,49-65.88a15.37,15.37,0,0,0,2.07-3.85c1.62-4.3,0-7.23-4.44-8.42-4.69-1.23-8.31.91-11.65,3.81a302.62,302.62,0,0,0-44.38,48.13,7.52,7.52,0,0,1-7.21,3.35l-4.05-.28c-12.08-.75-24.07.68-36.09,1.44a175.74,175.74,0,0,0-19.15,1.84,15.12,15.12,0,0,0-7.29,3,55.56,55.56,0,0,1-22.46,11.23c-4.14,1-7.16-.51-8.12-3.87s1.14-6.48,5.15-7.37c8-1.8,14.83-5.83,20.88-11.23,1.91-1.71,4.14-2.18,6.45-2.61,10.19-1.93,20.54-2.69,30.86-3.31a66.34,66.34,0,0,0,31.76-10.23,29.89,29.89,0,0,0,6.29-5.08c6.37-7,3.57-17.27-5.46-20a30.1,30.1,0,0,0-10.7-1c-9.08.6-17.57,3.51-26.21,6.1-11.87,3.57-23.8,4.62-35.31-1.88-10.16-5.74-21.3-7.69-32.84-7.78a101.73,101.73,0,0,0-43.83,9.59c-6,2.78-12.24,5.2-18.94,5.88-2.28.23-2.26,1.64-2.26,3.31Q2394.23,1275.91,2394.2,1291.8Zm-11.74,8.74h0q0-29.74,0-59.48c0-4.34-1.89-6.65-5.85-6.67q-22.64-.15-45.28,0c-3.71,0-5.86,2.27-5.91,6-.27,20,.08,40.1,1.59,60.1s4,40.06,7.26,59.93c.83,5.06,2.45,6.65,7.53,6.66q16.56,0,33.11,0c5.92,0,7.58-1.69,7.58-7.67Q2382.47,1329.94,2382.46,1300.54Zm202.47-44.07c1.07-1.41,1.67-2.35,2.42-3.15,6.92-7.4,14.22-14.4,21.81-21.11,4.51-4,9.57-6.76,15.63-7.14,2.87-.18,3-1.72,2.67-3.79a4.72,4.72,0,0,0-4-4c-4.38-1-8.34.34-11.85,2.61a139.34,139.34,0,0,0-28.25,24.39c-.76.85-1.49,1.67-.85,3C2583.77,1249.84,2584.16,1252.71,2584.93,1256.47Zm-21.41-23c3.33,1.11,6.44,1.72,9.17,3.32,1.21.71,1.84-.12,2.54-.89a160.61,160.61,0,0,1,23.52-21.23c1.7-1.26,1.28-2.09-.12-3-2.83-1.83-5.71-1-8.38.21C2579.69,1216.87,2571.3,1224.53,2563.52,1233.48Z" transform="translate(-203.27 -284.36)"/><path class="cls-2" d="M2532.72,1173.47q-.07,15.22-.14,30.43c0,5.48-1.88,7.38-7.24,7.38H2355.58c-5.82,0-7.69-1.89-7.69-7.7q0-44.47,0-89c0-5.17,2.22-7.35,7.47-7.35l169.42,0c6.1,0,7.82,1.72,7.83,7.85q.08,27.4.1,54.79A6.92,6.92,0,0,0,2532.72,1173.47Zm-95.7,26.19,3.45,0,10.08,0,3.45,0,10.08,0,3.45,0,10.08,0,3.45,0,10.07,0,3.45,0,23.61,0c2.21.52,3.44,0,2.75-2.58,0-24.8,0-49.6.18-74.39,0-3.18-.93-3.88-3.95-3.88q-77.27.12-154.52,0c-2.86,0-3.27,1-3.27,3.49.09,22.66,0,45.31.07,68,0,3-1,7.16.57,8.78,2,2.07,6.14.56,9.37.63l3.44,0,10.08,0,3.45,0,10.08,0,3.45,0,10.08,0,3.45,0,10.08,0,3.45,0Z" transform="translate(-203.27 -284.36)"/><path class="cls-8" d="M2559,1145.76c5.45-9.1,13.35-14.08,24-15.4,14.33-1.77,29.76,12,30.15,26.46.29,10.64-2.78,19.23-11.29,25.62a28.43,28.43,0,0,1-33.16.92,28.82,28.82,0,0,1-12-31c.1-.44.14-.89.21-1.33Zm25.47-3.66a17.07,17.07,0,0,0-17.05,17.24,17.3,17.3,0,0,0,17.42,17.33,17.56,17.56,0,0,0,17.15-17.35A17.29,17.29,0,0,0,2584.42,1142.1Z" transform="translate(-203.27 -284.36)"/><path class="cls-2" d="M2590.4,1067.37a5.89,5.89,0,0,1-6.24,5.29,5.64,5.64,0,0,1-5.29-6.14,5.8,5.8,0,0,1,6.16-5.34A6,6,0,0,1,2590.4,1067.37Z" transform="translate(-203.27 -284.36)"/><path class="cls-2" d="M2590.41,1090a5.78,5.78,0,0,1-5.73,5.79,5.61,5.61,0,0,1-5.81-5.62,5.78,5.78,0,0,1,5.65-5.88A6,6,0,0,1,2590.41,1090Z" transform="translate(-203.27 -284.36)"/><path class="cls-2" d="M2440.42,1072.67a5.87,5.87,0,0,1-6-5.6,6.07,6.07,0,0,1,5.71-5.93,5.75,5.75,0,0,1,5.82,5.7A5.51,5.51,0,0,1,2440.42,1072.67Z" transform="translate(-203.27 -284.36)"/><path class="cls-2" d="M2590.43,1113.06a5.8,5.8,0,0,1-11.6.13,6,6,0,0,1,5.7-5.9A6.13,6.13,0,0,1,2590.43,1113.06Z" transform="translate(-203.27 -284.36)"/><path class="cls-2" d="M2446,1090.06a5.52,5.52,0,0,1-5.72,5.68,5.7,5.7,0,0,1-5.77-5.73,6,6,0,0,1,5.82-5.77A5.69,5.69,0,0,1,2446,1090.06Z" transform="translate(-203.27 -284.36)"/><path class="cls-10" d="M2532.56,1067.1a17.06,17.06,0,0,1-17.2,17.1,17.28,17.28,0,1,1,17.2-17.1Z" transform="translate(-203.27 -284.36)"/><path class="cls-10" d="M2394.2,1291.8q0-15.9,0-31.79c0-1.67,0-3.08,2.26-3.31,6.7-.68,12.9-3.1,18.94-5.88a101.73,101.73,0,0,1,43.83-9.59c11.54.09,22.68,2,32.84,7.78,11.51,6.5,23.44,5.45,35.31,1.88,8.64-2.59,17.13-5.5,26.21-6.1a30.1,30.1,0,0,1,10.7,1c9,2.69,11.83,13,5.46,20a29.89,29.89,0,0,1-6.29,5.08,66.34,66.34,0,0,1-31.76,10.23c-10.32.62-20.67,1.38-30.86,3.31-2.31.43-4.54.9-6.45,2.61-6,5.4-12.85,9.43-20.88,11.23-4,.89-6.08,4.11-5.15,7.37s4,4.84,8.12,3.87a55.56,55.56,0,0,0,22.46-11.23,15.12,15.12,0,0,1,7.29-3,175.74,175.74,0,0,1,19.15-1.84c12-.76,24-2.19,36.09-1.44l4.05.28a7.52,7.52,0,0,0,7.21-3.35,302.62,302.62,0,0,1,44.38-48.13c3.34-2.9,7-5,11.65-3.81,4.48,1.19,6.06,4.12,4.44,8.42a15.37,15.37,0,0,1-2.07,3.85c-16.52,21.83-32.38,44.15-49,65.88-4,5.27-9,8.06-15.09,9.9-29.94,9-60,17.53-90.75,23.5a47.08,47.08,0,0,1-27.12-2.21c-12.05-4.75-24-9.7-35.32-16a26.74,26.74,0,0,0-14.76-3.5c-5.71.24-4.75.6-4.8-4.83C2394.13,1311.86,2394.2,1301.83,2394.2,1291.8Z" transform="translate(-203.27 -284.36)"/><path class="cls-8" d="M2382.46,1300.54q0,29.4,0,58.8c0,6-1.66,7.66-7.58,7.67q-16.54,0-33.11,0c-5.08,0-6.7-1.6-7.53-6.66q-5-29.8-7.26-59.93c-1.51-20-1.86-40.05-1.59-60.1,0-3.68,2.2-5.94,5.91-6q22.64-.12,45.28,0c4,0,5.84,2.33,5.85,6.67q0,29.73,0,59.48Zm-17.17,43.67a5.6,5.6,0,0,0-5.61-5.84,5.51,5.51,0,0,0-5.87,5.53,5.65,5.65,0,0,0,5.52,6A6,6,0,0,0,2365.29,1344.21Z" transform="translate(-203.27 -284.36)"/><path class="cls-10" d="M2584.93,1256.47c-.77-3.76-1.16-6.63-2.43-9.23-.64-1.3.09-2.12.85-3a139.34,139.34,0,0,1,28.25-24.39c3.51-2.27,7.47-3.63,11.85-2.61a4.72,4.72,0,0,1,4,4c.34,2.07.2,3.61-2.67,3.79-6.06.38-11.12,3.15-15.63,7.14-7.59,6.71-14.89,13.71-21.81,21.11C2586.6,1254.12,2586,1255.06,2584.93,1256.47Z" transform="translate(-203.27 -284.36)"/><path class="cls-10" d="M2563.52,1233.48c7.78-9,16.17-16.61,26.73-21.58,2.67-1.25,5.55-2,8.38-.21,1.4.9,1.82,1.73.12,3a160.61,160.61,0,0,0-23.52,21.23c-.7.77-1.33,1.6-2.54.89C2570,1235.2,2566.85,1234.59,2563.52,1233.48Z" transform="translate(-203.27 -284.36)"/><path class="cls-10" d="M2584.42,1142.1a17.29,17.29,0,0,1,17.52,17.22,17.56,17.56,0,0,1-17.15,17.35,17.3,17.3,0,0,1-17.42-17.33A17.07,17.07,0,0,1,2584.42,1142.1Z" transform="translate(-203.27 -284.36)"/><path class="cls-10" d="M2365.29,1344.21a6,6,0,0,1-6,5.65,5.65,5.65,0,0,1-5.52-6,5.51,5.51,0,0,1,5.87-5.53A5.6,5.6,0,0,1,2365.29,1344.21Z" transform="translate(-203.27 -284.36)"/><path class="cls-2" d="M2444.53,1194c-1.23-.59-2.28.35-3.44.41-3.36-.22-6.7-.91-10.09-.41a6,6,0,0,0-3.45,0l-10.08,0a6,6,0,0,0-3.44,0l-10.08,0a6,6,0,0,0-3.45,0l-10.08,0a6,6,0,0,0-3.45,0c-2.64-.35-5.45.41-7.93-1.11l-2-2.76c-.59-5.92-1.17-6.53-7.15-7.9-2.88-.67-4.54-2.54-4.55-5.5-.05-11.6-.06-23.2,0-34.8,0-3.39,2-5.22,5.85-5.71a5.9,5.9,0,0,0,5.6-5.35c.82-4.74,2.42-6.17,7.14-6.18h112.84c4.52,0,6.42,1.52,7.06,5.94.49,3.39,2.23,5.19,5.66,5.6,4.1.48,5.87,2.52,5.89,6.78q.08,16.38,0,32.77c0,4-1.73,6-5.73,6.58-3.43.52-5.53,2.12-5.82,5.82a6,6,0,0,1-5.21,5.79,6.87,6.87,0,0,0-3.46,0l-10.08,0a6,6,0,0,0-3.45,0l-10.08,0a6,6,0,0,0-3.44,0l-10.08,0a6,6,0,0,0-3.45,0Zm58.1-47.61a17.71,17.71,0,0,1-8.71-8.59,2.19,2.19,0,0,0-2.21-1.63c-9.51,0-19,0-28.93,0,9.89,15.5,9.75,30.71.14,46.12h23.72c1.58,0,3.16-.06,4.73,0a2.41,2.41,0,0,0,2.59-1.63,16.21,16.21,0,0,1,8.2-8.15,2.64,2.64,0,0,0,1.72-2.86c-.1-6.64-.09-13.28-.13-19.92C2503.8,1148.53,2504.76,1147,2502.63,1146.42Zm-80.49,13a25,25,0,0,0,3.91,14.25c6.61,10.89,20,11.61,27.53,1.49,6.75-9.07,6.65-22.93-.22-31.89-7.26-9.46-19.22-9.39-26.3.18A24.51,24.51,0,0,0,2422.14,1159.44Zm-4.42-23.22c-10,0-19.42,0-28.86,0a2,2,0,0,0-2.15,1.5,15.54,15.54,0,0,1-7.79,8.09c-1.74.81-2.15,1.86-2.12,3.64.1,6.53.09,13.06,0,19.58,0,1.84.27,3,2.21,3.9a14.13,14.13,0,0,1,7.26,7.24c.87,1.94,2.12,2.24,3.94,2.22,7.32-.06,14.63,0,22,0h5.52C2408.05,1166.73,2408.13,1151.7,2417.72,1136.22Z" transform="translate(-203.27 -284.36)"/><path class="cls-9" d="M2422.14,1159.44a24.51,24.51,0,0,1,4.92-16c7.08-9.57,19-9.64,26.3-.18,6.87,9,7,22.82.22,31.89-7.53,10.12-20.92,9.4-27.53-1.49A25,25,0,0,1,2422.14,1159.44Z" transform="translate(-203.27 -284.36)"/><path class="cls-10" d="M2486.46,1156.47c1.68.18,2.72,1,2.76,2.76a2.52,2.52,0,0,1-2.94,2.81,2.45,2.45,0,0,1-2.57-2.83A2.68,2.68,0,0,1,2486.46,1156.47Z" transform="translate(-203.27 -284.36)"/><path class="cls-9" d="M257.36,818.16s-4.39,23.69-4.12,24.49,7.45,24.49,7.45,24.49L277.9,889l16.59,1.87,10.92-6.13,12.77-20.49,6.39-18.9V823.49L317.92,811l-49.24-2.55Z" transform="translate(-203.27 -284.36)"/><path class="cls-9" d="M526.45,818.16s-4.38,23.69-4.12,24.49,7.45,24.49,7.45,24.49L547,889l16.6,1.87,10.91-6.13,12.77-20.49,6.39-18.9V823.49L587,811l-49.24-2.55Z" transform="translate(-203.27 -284.36)"/><path class="cls-9" d="M373.94,820.48s-6.85,37-6.43,38.25S379.15,897,379.15,897L406,931.07,432,934,449,924.42l20-32,10-29.52v-34.1l-10.39-19.54-76.92-4Z" transform="translate(-203.27 -284.36)"/><path class="cls-8" d="M422.21,1032.48c-4.27,0-8.15-.09-11.86-.29l-10.65-.52c-18.77-.87-38.18-1.78-57-5.84a179.48,179.48,0,0,1-20-5.6c-4.36-1.47-6.31-4.29-5.95-8.62.31-3.81.59-7.69.85-11.45.36-5.1.73-10.39,1.21-15.58,1.15-12.31,2.43-22.25,4-31.3,2.41-13.58,10.27-24,23.34-30.89,5.87-3.1,12.1-5.65,18.12-8.13,1.77-.72,3.58-1.47,5.39-2.23a65.61,65.61,0,0,1-12.64-3.28l-2.14-.85,1.15-2a7.24,7.24,0,0,1,4.09-3.14c.3-.12.59-.24.87-.38a26.83,26.83,0,0,0,13.51-15,6.39,6.39,0,0,0,.24-.67l-.23,0a7.57,7.57,0,0,1-.81,0c-2.9,0-5.11-1.57-6.58-4.67a61.74,61.74,0,0,1-6-24.07c-1-25.27,5.2-46,19-63.27,10.75-13.48,23.48-20,38.92-20h.12a145.62,145.62,0,0,1,21.25,1.45,28.55,28.55,0,0,1,13.72,6.31c17.47,13.81,27.55,32.75,30.84,57.88a80.69,80.69,0,0,1-4.51,40c-.75,1.95-2.51,6.51-8,6.51h-.28l.06.2a25.2,25.2,0,0,0,14.26,15.65c.18.08.38.14.59.21a5.2,5.2,0,0,1,3.55,2.81l.81,1.76-1.73.87a49,49,0,0,1-12.11,3.75c1.85.78,3.71,1.56,5.58,2.32a153.38,153.38,0,0,1,18.5,8.65c13.89,8,22,20.26,24.23,36.45,2.08,15.45,2.88,30.75,3.43,45,.09,2.47.36,4.9.58,6.75.5,4.3-1.35,7.19-5.68,8.84a134.35,134.35,0,0,1-26.6,6.87,419.91,419.91,0,0,1-52.2,4.87l-.68,0C437.46,1032.18,429.78,1032.48,422.21,1032.48ZM391.74,911.42c.58.67,1.77,1.75,2.69,2.58,9,8.18,18.54,12.33,28.36,12.33a41.39,41.39,0,0,0,14.39-2.75A59,59,0,0,0,455.84,912a16.24,16.24,0,0,1-6.5-2.5,10.81,10.81,0,0,0-6.61-2.55c-2.49,0-5.15,1-8.91,3.37a18.67,18.67,0,0,1-10.07,3A23.86,23.86,0,0,1,412,909.88l-2.37-1.33c-1.79-1-3.64-2-5.43-3.11a2.29,2.29,0,0,0-1-.4,1.53,1.53,0,0,0-.85.44,32.17,32.17,0,0,1-7.26,4.28C393.82,910.34,392.46,911,391.74,911.42Zm1.95-96.78c-2,0-3.05.86-3.52,2.89-4.31,18.52-4.47,34.89-.48,50.06,4.15,15.8,13.41,26.63,27.51,32.2a19.42,19.42,0,0,0,7.11,1.45,16.93,16.93,0,0,0,9.85-3.3,72.11,72.11,0,0,0,9-7.25c12.65-12.41,19.7-28,21-46.41a24.3,24.3,0,0,0-2.81-13.6l.06.43c0,.15,0,.29.07.44.16,1,.5,3.08-1.35,4.27a3.13,3.13,0,0,1-1.72.53,3.82,3.82,0,0,1-3.07-2l-.18-.25c-7.19-9.59-16.76-16.24-26.76-22.76l-.33-.22a3.36,3.36,0,0,0-1.28-.66,1,1,0,0,0-.27.05c-8.44,2.83-17.86,4.21-28.8,4.21-1.28,0-2.56,0-3.84-.05Z" transform="translate(-203.27 -284.36)"/><path class="cls-2" d="M419.23,776.73a145.35,145.35,0,0,1,21,1.43,26.78,26.78,0,0,1,12.77,5.9c18.29,14.47,27.14,34,30.09,56.57a78.26,78.26,0,0,1-4.38,39c-1.17,3-2.65,5.23-6.09,5.23l-.54,0h-.29c-2,0-1.81,1.36-1.29,2.88a27.34,27.34,0,0,0,15.34,16.82c1.05.46,2.41.48,3.13,2-5.58,2.8-11.67,3.4-17.79,4.92,3.8,1.6,7.59,3.23,11.4,4.8a148.5,148.5,0,0,1,18.26,8.53c13.58,7.81,21.18,19.69,23.25,35,2,14.85,2.83,29.82,3.41,44.8.09,2.3.32,4.61.59,6.91.42,3.51-1.12,5.48-4.4,6.74a134.53,134.53,0,0,1-26.22,6.76,422.05,422.05,0,0,1-51.95,4.85c-7.76.3-15.53.62-23.28.62-3.92,0-7.84-.08-11.75-.28-22.54-1.19-45.18-1.55-67.38-6.33a177.64,177.64,0,0,1-19.73-5.53c-3.33-1.13-4.89-3-4.6-6.56.75-9,1.23-18,2.07-27,1-10.41,2.17-20.8,4-31.12,2.43-13.69,10.49-23.23,22.31-29.48,8.45-4.47,17.53-7.73,26.33-11.56.67-.29,1.56-.29,2-1.52-5.9-1.19-11.88-1.88-17.7-4.19,1-1.76,2.74-2,4.12-2.71a28.92,28.92,0,0,0,14.48-16.06c.77-2,1-3.41-1.32-3.41-.22,0-.46,0-.72,0l-.62,0c-2.32,0-3.75-1.38-4.77-3.52A59.71,59.71,0,0,1,363.2,858c-.91-22.71,4.07-43.77,18.56-61.94,9.6-12,21.54-19.28,37.36-19.29h.11m-21.52,36c-1.26,0-2.52,0-3.79-.05h-.23c-2.92,0-4.78,1.51-5.47,4.45-4,17-4.93,34-.46,51,4.13,15.73,13.24,27.44,28.7,33.55a21.32,21.32,0,0,0,7.85,1.59,18.86,18.86,0,0,0,11-3.66,73.09,73.09,0,0,0,9.26-7.47c13.35-13.1,20.3-29.29,21.57-47.7.79-11.37-4.75-20.14-14.49-26.16.54.65,1.11,1.29,1.6,2,2.5,3.47,5.62,6.59,6.17,11.13.11,1,.52,2.21-.38,2.79a1.18,1.18,0,0,1-.64.21c-.75,0-1.23-.93-1.65-1.48-7.35-9.79-17.18-16.65-27.26-23.23a5.14,5.14,0,0,0-2.71-1.21,2.76,2.76,0,0,0-.9.16,87.84,87.84,0,0,1-28.17,4.1m25.08,115.64a43.28,43.28,0,0,0,15.09-2.87c8.25-3.07,15.35-8.09,22.06-14.5-3.44-1.05-7-1.24-9.39-3a12.67,12.67,0,0,0-7.82-3c-3.31,0-6.53,1.51-10,3.68a16.6,16.6,0,0,1-9,2.67A22,22,0,0,1,413,908.14c-2.58-1.46-5.21-2.87-7.75-4.41a4,4,0,0,0-2-.69A3.3,3.3,0,0,0,401,904a30.73,30.73,0,0,1-6.83,4c-6.1,2.86-6.18,2.94-1.13,7.53,9,8.19,18.86,12.85,29.71,12.85m-3.56-155.6h-.12c-16.08,0-29.32,6.81-40.47,20.79-14.11,17.7-20.47,38.83-19.44,64.6A63.7,63.7,0,0,0,365.37,883c1.75,3.7,4.25,5.15,6.49,5.62a24.56,24.56,0,0,1-11.7,12c-.18.09-.45.2-.73.31a9.28,9.28,0,0,0-5.09,4l-2.29,4,4.28,1.7a49,49,0,0,0,6.59,2.07c-5.86,2.41-11.91,4.92-17.65,8-13.65,7.21-21.85,18.08-24.38,32.3-1.62,9.11-2.91,19.1-4.06,31.46-.48,5.22-.85,10.52-1.21,15.64-.27,3.74-.54,7.62-.85,11.42-.3,3.64.72,8.45,7.3,10.68a181.1,181.1,0,0,0,20.17,5.65c19,4.1,38.51,5,57.36,5.89,3.55.17,7.1.33,10.65.52,3.74.2,7.66.29,12,.29,7.61,0,15.32-.3,22.78-.6l.66,0c20.48-.81,37.15-2.37,52.44-4.9a136.15,136.15,0,0,0,27-7c6.51-2.49,7.37-7.33,6.94-10.94-.21-1.82-.47-4.2-.56-6.6-.56-14.28-1.35-29.64-3.45-45.17-2.27-16.84-10.75-29.6-25.21-37.92a154.45,154.45,0,0,0-18.62-8.72,36.87,36.87,0,0,0,6.55-2.48l3.47-1.74-1.64-3.52a7.17,7.17,0,0,0-4.76-3.88l-.39-.13a23,23,0,0,1-12.32-12.3c4.86-1.18,6.6-5.65,7.31-7.49a82.78,82.78,0,0,0,4.62-41c-3.35-25.68-13.68-45-31.58-59.18a30.49,30.49,0,0,0-14.67-6.73,148.14,148.14,0,0,0-21.55-1.47Zm-21.52,44a92.33,92.33,0,0,0,28.93-4.14l.31.2.35.24c9.84,6.42,19.25,13,26.26,22.28l.12.19a5.82,5.82,0,0,0,4.72,2.89,5.21,5.21,0,0,0,3.26-1.18,23.84,23.84,0,0,1,.49,7c-1.24,17.88-8.09,33.06-20.39,45.12a68.69,68.69,0,0,1-8.75,7,14.75,14.75,0,0,1-8.7,2.94,17.41,17.41,0,0,1-6.38-1.31c-13.66-5.4-22.27-15.49-26.3-30.85-3.91-14.84-3.74-30.9.49-49.1.29-1.24.62-1.35,1.57-1.35h.12c1.33,0,2.64.05,3.9.05Zm-2.58,95.25.78-.37a34.55,34.55,0,0,0,7.4-4.32c1.77,1.07,3.57,2.07,5.31,3l2.37,1.33a25.88,25.88,0,0,0,12.76,3.69A20.55,20.55,0,0,0,434.88,912c3.42-2.15,5.77-3.06,7.85-3.06a8.84,8.84,0,0,1,5.4,2.14,12.33,12.33,0,0,0,3.49,1.84,54.47,54.47,0,0,1-15.13,8.77,39.38,39.38,0,0,1-13.7,2.62c-9.44,0-18.28-3.86-27-11.81l-.64-.58Z" transform="translate(-203.27 -284.36)"/><path class="cls-2" d="M557.61,1009.9c-7.07.41-15.2-.47-23.35-.65-3.07-.07-3.91-1.38-4-4.22-.55-13.87-1.23-27.75-3.31-41.48-2.78-18.29-12.4-32-28.71-40.85-1.41-.77-3.78-1.11-3.86-2.71-.09-1.86,2.29-2.46,3.76-3.28,4.44-2.49,9.12-4.7,14.09-5.58,7.93-1.4,13-6.29,16.82-12.71,1.84-3.1,3-2.93,5.69-1,15.17,10.74,32,10.56,47-.45,2.34-1.73,3.29-1.38,4.74,1,4.07,6.67,9.38,11.32,17.52,13.35,22.17,5.54,34.08,21,35.72,44,.87,12.3,2.37,24.56,3.72,36.82.63,5.65.17,6.64-5.22,8.53-11.74,4.12-24,5.88-36.24,7.15A407,407,0,0,1,557.61,1009.9Z" transform="translate(-203.27 -284.36)"/><path class="cls-2" d="M557.4,782.34c-3.08.77-6.23,1.13-9.14,2.63,5.12.16,10-2.4,16.2-1.35l-5.59,1.51c5.4.28,10.09-.43,15.41.75-1.92,1.35-3.51.54-5.34,1.3,7.49,2,15.24,1.41,21.22,6.65l-7.48-2.44c4.41,2.17,7.17,6,10,9.61,1.73,2.2,4.4,4.12,3,7.64-.15.39.28,1,.49,1.55,1.52,3.75,2.62,7.26,2.08,11.72-.92,7.49-.42,15.18-.27,22.79a34.61,34.61,0,0,1-7.06,21.91,33.51,33.51,0,0,0-4.15,7.47,35.54,35.54,0,0,1-11.09,15c-13.33,10.42-31,8.15-41-6-5.43-7.67-9.64-16.22-14.06-24.55-2.19-4.13-2.29-8.9-2.62-13.54-.47-6.58-1.4-13.14-1.69-19.73s-.11-13.48,2.35-19.87c.65-1.69-2.16-.39-1.31-2,.73-1.39,1.47-3,2.82-3.56,5.3-2.22,8-7.36,12.33-10.64,3.2-2.41,6.38-5.28,10.22-5.85C547.52,782.61,552.43,781.39,557.4,782.34Zm.21,38.78v.1c-6.83,0-13.67,0-20.51,0-4.69,0-6.67,1.69-7.08,6.39-.28,3.29-.14,6.61-.17,9.92,0,1.57-.06,3.23-1.27,4.33-2.51,2.29-2.38,5.11-1.73,7.95,2.35,10.42,10,18.21,14.07,27.76a9.38,9.38,0,0,0,1.64,2.08c7.16,8.39,18.59,9.94,27,3.56a26.5,26.5,0,0,0,9.38-12.16,32.29,32.29,0,0,1,5.24-9.47,24.54,24.54,0,0,0,5.3-13.67c.14-1.72.15-3.44-1.16-4.63-2-1.84-2.31-4.17-2.34-6.63,0-2.76,0-5.52-.07-8.27-.23-5-2.41-7.19-7.45-7.24C571.51,821.06,564.56,821.12,557.61,821.12Z" transform="translate(-203.27 -284.36)"/><path class="cls-2" d="M289.28,1009.9c7.07.41,15.2-.47,23.35-.65,3.07-.07,3.91-1.38,4-4.22.54-13.87,1.22-27.75,3.3-41.48,2.78-18.29,12.4-32,28.71-40.85,1.42-.77,3.78-1.11,3.86-2.71.09-1.86-2.29-2.46-3.76-3.28-4.44-2.49-9.12-4.7-14.09-5.58-7.93-1.4-13-6.29-16.82-12.71-1.84-3.1-3-2.93-5.69-1-15.17,10.74-32.05,10.56-47-.45-2.34-1.73-3.29-1.38-4.74,1-4.07,6.67-9.38,11.32-17.52,13.35-22.17,5.54-34.08,21-35.72,44-.87,12.3-2.37,24.56-3.72,36.82-.63,5.65-.17,6.64,5.22,8.53,11.74,4.12,24,5.88,36.24,7.15A407.08,407.08,0,0,0,289.28,1009.9Z" transform="translate(-203.27 -284.36)"/><path class="cls-2" d="M304.17,783.33c3.83.57,7,3.44,10.21,5.85,4.35,3.28,7,8.42,12.33,10.64,1.35.56,2.09,2.17,2.82,3.56.85,1.61-2,.31-1.31,2,2.47,6.39,2.64,13.16,2.35,19.87s-1.22,13.15-1.69,19.73c-.33,4.64-.43,9.41-2.62,13.54-4.42,8.33-8.63,16.88-14.05,24.55-10,14.14-27.67,16.41-41,6a35.54,35.54,0,0,1-11.09-15,33.51,33.51,0,0,0-4.15-7.47,34.67,34.67,0,0,1-7.06-21.91c.15-7.61.65-15.3-.27-22.79-.54-4.46.56-8,2.08-11.72.21-.51.64-1.16.49-1.55-1.44-3.52,1.23-5.44,3-7.64,2.87-3.64,5.63-7.44,10-9.61l-7.48,2.44c6-5.24,13.73-4.67,21.22-6.65-1.83-.76-3.42.05-5.34-1.3,5.32-1.18,10-.47,15.41-.75l-5.59-1.51c6.18-1,11.08,1.51,16.2,1.35-2.91-1.5-6.06-1.86-9.14-2.63C294.46,781.39,299.37,782.61,304.17,783.33Zm-35.73,37.81c-5,.05-7.22,2.2-7.45,7.24-.12,2.75,0,5.51-.07,8.27,0,2.46-.32,4.79-2.34,6.63-1.31,1.19-1.3,2.91-1.16,4.63a24.54,24.54,0,0,0,5.3,13.67,32.06,32.06,0,0,1,5.24,9.47,26.5,26.5,0,0,0,9.38,12.16c8.4,6.38,19.83,4.83,27-3.56a9.38,9.38,0,0,0,1.64-2.08c4.11-9.55,11.72-17.34,14.07-27.76.65-2.84.78-5.66-1.73-7.95-1.21-1.1-1.25-2.76-1.27-4.33,0-3.31.11-6.63-.17-9.92-.4-4.7-2.39-6.37-7.08-6.39-6.84,0-13.68,0-20.51,0v-.1C282.33,821.12,275.38,821.06,268.44,821.14Z" transform="translate(-203.27 -284.36)"/><path class="cls-11" d="M1068.46,889.34q-35.51,35.38-70.9,70.89c-1.76,1.77-3,2.08-4.86.1q-8.4-8.73-17.17-17.15c-1.94-1.87-1.73-3,.09-4.82,10.86-10.7,21.62-21.5,32.4-32.27.9-.91,1.75-1.85,2.83-3a6.54,6.54,0,0,0-3.9-.59c-37.25,0,28.85,0-8.4,0-.4,0-.83,0-1.26,0H758.81c11.82,11.87,23,23.07,34.13,34.31,4.93,5,4.95,3.68,0,8.72s-10,9.89-14.88,15c-1.77,1.84-2.9,2-4.81.09q-35.51-35.65-71.14-71.15c-1.78-1.77-1.63-2.85.07-4.55q35.39-35.25,70.64-70.66c2.05-2.06,3.34-2.11,5.37,0,5.42,5.67,11,11.21,16.66,16.66,2,1.89,2,3.11,0,5.09-11.13,10.93-22.13,22-33.15,33-.65.65-1.2,1.38-2,2.3,1.8.84,3.45.48,5,.48H875.44c.33,0,.69,0,1,0q23.57,0,47.14,0h87.58c-.41-1.65-1.59-2.32-2.43-3.17-10.94-11-21.87-21.93-32.9-32.78-2-2-2.3-3.24-.1-5.34,5.78-5.49,11.39-11.16,16.93-16.89,1.73-1.78,2.85-1.7,4.56,0q35.52,35.63,71.15,71.14C1070.13,886.49,1070.23,887.58,1068.46,889.34Z" transform="translate(-203.27 -284.36)"/><path class="cls-12" d="M2166.74,603.3q-21.61,47.78-43,95.65c-1.07,2.38-2.12,3.13-4.71,1.9q-11.46-5.42-23.16-10.4c-2.6-1.11-2.82-2.31-1.71-4.75,6.66-14.49,13.17-29.05,19.72-43.59.54-1.22,1-2.46,1.65-4-1.87-.28-2.93.45-4,.87-36.43,13.81,28.21-10.72-8.21,3.1-.39.17-.82.33-1.23.48q-24.78,9.39-49.55,18.81l-183.7,69.72c16,7.22,31,14,46.11,20.88,6.66,3,6.21,1.76,3.21,8.55s-6.12,13.39-9,20.16c-1,2.45-2.1,3-4.68,1.88q-48-21.71-96-43.19c-2.4-1.07-2.65-2.19-1.61-4.47q21.51-47.62,42.85-95.33c1.24-2.79,2.49-3.31,5.26-2,7.41,3.53,14.92,6.88,22.48,10.11,2.63,1.12,3.16,2.28,1.92,5-6.83,14.81-13.48,29.72-20.17,44.59-.4.87-.66,1.8-1.09,3,2.07.16,3.55-.81,5.08-1.39l108.23-41.06.06,0c.32-.15.67-.28,1-.41q23.07-8.71,46.11-17.5l82-31.11,3.67-1.39c-1-1.46-2.41-1.68-3.55-2.2-14.76-6.65-29.52-13.33-44.35-19.84-2.71-1.19-3.45-2.32-2.07-5.19,3.61-7.51,7-15.15,10.28-22.8,1-2.39,2.16-2.72,4.48-1.67q48,21.66,96,43.17C2167.31,599.88,2167.81,600.92,2166.74,603.3Z" transform="translate(-203.27 -284.36)"/><path class="cls-13" d="M1814.28,998.72q25.15,46,50.15,92.13c1.24,2.29,2.35,3,4.84,1.54q11-6.27,22.31-12.13c2.5-1.3,2.63-2.52,1.34-4.86-7.73-14-15.32-28-23-42-.63-1.17-1.2-2.37-1.94-3.84,1.84-.42,3,.23,4.09.56,37.37,11-28.94-8.56,8.42,2.47.41.15.84.27,1.27.39l50.82,15,188.45,55.63c-15.37,8.41-29.9,16.34-44.39,24.31-6.42,3.52-6.07,2.23-2.56,8.76s7.12,12.89,10.49,19.43c1.23,2.37,2.32,2.88,4.81,1.52q46.17-25.26,92.45-50.32c2.31-1.25,2.47-2.39,1.27-4.59q-25.07-45.85-49.95-91.81c-1.44-2.69-2.73-3.11-5.39-1.58-7.12,4.09-14.36,8-21.65,11.79-2.54,1.31-3,2.5-1.54,5.09,7.93,14.26,15.69,28.62,23.49,42.94.46.84.79,1.74,1.31,2.89-2.06.31-3.6-.54-5.18-1l-111-32.75-.06,0c-.33-.12-.69-.23-1.05-.34q-23.65-6.95-47.3-14l-84.1-24.81-3.77-1.12c.89-1.53,2.27-1.85,3.37-2.45,14.22-7.76,28.43-15.53,42.72-23.15,2.62-1.39,3.27-2.57,1.68-5.32-4.17-7.22-8.12-14.58-12-22-1.22-2.3-2.36-2.55-4.59-1.32q-46.19,25.23-92.45,50.31C1813.45,995.36,1813,996.43,1814.28,998.72Z" transform="translate(-203.27 -284.36)"/></svg>